<svg version="1.1" xmlns="http://www.w3.org/2000/svg"  width='48px' height='48px' viewBox="0 0 256 256" enable-background="new 0 0 40 40" xml:space="preserve"><g><g><g><path fill="#61efff" stroke="#000000"  stroke-width="6" data-title="Layer 0" xs="0" d="M117.8,11.7c-1.6,1.6-1.6,1.8-1.2,8.3c0.2,3.6,0.5,40.8,0.7,82.6l0.3,76h-3.4c-15.5,0-34.4,13.9-42.5,31.2c-6.5,13.9-3.9,28,6.3,33.4c6.1,3.4,14.1,3.6,22.7,0.8c21.8-7.4,39.3-32.8,34.7-50.5c-0.9-3.6-1-10.3-1-56.9V83.7l6,5.9c3.5,3.5,9.9,8.8,15.6,12.8c14.9,10.6,19.2,15.9,21.2,26.2c1.2,5.9,1.4,6.4,3.7,7.4c2.4,1,4.8-0.1,6.1-2.6c1.5-3.1,0.6-16.2-1.8-25.5c-3.3-12.7-9.2-22-27.1-42c-16.3-18.4-24.5-31.2-30.3-47.1C124.8,10.3,121.5,8,117.8,11.7z"/></g></g></g></svg>